<svg width="135" height="50" viewBox="0 0 135 50" fill="none" xmlns="http://www.w3.org/2000/svg">
<g clip-path="url(#clip0_12_21)">
<path d="M129.47 30.6477V26.3436V17.7446H116.613H108.041V13.4405H129.47V4.83698H108.041H95.184V13.4405V17.7446V26.3436H108.041H116.613V30.6477H95.184V39.2512H116.613H129.47V30.6477Z" fill="white"/>
<path d="M90.9 4.83698H82.3275V39.2467H90.9V4.83698Z" fill="white"/>
<path d="M43.758 4.83698V13.4405H69.471V17.7446H52.326H43.758V26.3436V39.2512H52.326V26.4746L65.187 39.2512H78.0435L64.629 26.3436H69.471H78.0435V17.7446V13.4405V4.83698H69.471H43.758Z" fill="white"/>
<path d="M18.0405 26.3436H26.5905V17.7626H18.0405V26.3436ZM20.187 19.8943H24.471V24.1939H20.187V19.8943Z" fill="white"/>
<path d="M13.7565 4.83698H6.25502C5.97154 4.83914 5.70017 4.95262 5.49902 5.15312C5.39895 5.2532 5.3196 5.37216 5.26554 5.50316C5.21148 5.63415 5.18377 5.77459 5.18402 5.91637V38.1718C5.18377 38.3136 5.21148 38.454 5.26554 38.585C5.3196 38.716 5.39895 38.835 5.49902 38.9351C5.70062 39.1343 5.97208 39.2462 6.25502 39.2467H26.613V30.6657H13.7565V4.83698Z" fill="white"/>
<path d="M38.3985 4.83698H18.0405V13.4405H30.9015V26.3436H39.4515V5.91637C39.4542 5.63221 39.346 5.35828 39.15 5.15312C38.9492 4.9549 38.6802 4.84171 38.3985 4.83698Z" fill="white"/>
<path d="M39.474 30.6476H30.9015V50.0045H39.474V30.6476Z" fill="white"/>
<path d="M17.145 0H1.071C0.787318 0.00118878 0.515593 0.114817 0.314997 0.316139C0.114402 0.517461 0.00118449 0.79017 0 1.07488L0 17.2071H2.142V3.20658C2.14787 2.92501 2.26315 2.6569 2.46324 2.45946C2.66334 2.26202 2.9324 2.15088 3.213 2.14976H17.163L17.145 0Z" fill="white"/>
<path d="M132.858 27.9559V41.9565C132.857 42.2412 132.744 42.5139 132.543 42.7152C132.342 42.9165 132.071 43.0302 131.787 43.0314H117.837V45.163H133.911C134.053 45.1648 134.194 45.1384 134.326 45.0852C134.457 45.0321 134.577 44.9533 134.679 44.8533C134.78 44.7534 134.86 44.6343 134.916 44.503C134.971 44.3717 134.999 44.2307 135 44.0882V27.9559H132.858Z" fill="white"/>
</g>
<defs>
<clipPath id="clip0_12_21">
<rect width="135" height="50" fill="white"/>
</clipPath>
</defs>
</svg>
